<svg width="45" height="45" viewBox="0 0 45 45" fill="none" xmlns="http://www.w3.org/2000/svg">
<path fill-rule="evenodd" clip-rule="evenodd" d="M22.5 45C34.9264 45 45 34.9264 45 22.5C45 10.0736 34.9264 0 22.5 0C10.0736 0 0 10.0736 0 22.5C0 34.9264 10.0736 45 22.5 45ZM22.5 42.5C33.5457 42.5 42.5 33.5457 42.5 22.5C42.5 11.4543 33.5457 2.5 22.5 2.5C11.4543 2.5 2.5 11.4543 2.5 22.5C2.5 33.5457 11.4543 42.5 22.5 42.5Z" fill="white"/>
<path fill-rule="evenodd" clip-rule="evenodd" d="M22.5 40C32.165 40 40 32.165 40 22.5C40 12.835 32.165 5 22.5 5C12.835 5 5 12.835 5 22.5C5 32.165 12.835 40 22.5 40ZM20 15C20 16.3807 21.1193 17.5 22.5 17.5H27.5V30C27.5 31.3807 28.6193 32.5 30 32.5C31.3807 32.5 32.5 31.3807 32.5 30V15C32.5 13.6193 31.3807 12.5 30 12.5H22.5C21.1193 12.5 20 13.6193 20 15ZM17.5 15C17.5 16.3807 16.3807 17.5 15 17.5C13.6193 17.5 12.5 16.3807 12.5 15C12.5 13.6193 13.6193 12.5 15 12.5C16.3807 12.5 17.5 13.6193 17.5 15ZM15 25C16.3807 25 17.5 23.8807 17.5 22.5C17.5 21.1193 16.3807 20 15 20C13.6193 20 12.5 21.1193 12.5 22.5C12.5 23.8807 13.6193 25 15 25ZM17.5 30C17.5 31.3807 16.3807 32.5 15 32.5C13.6193 32.5 12.5 31.3807 12.5 30C12.5 28.6193 13.6193 27.5 15 27.5C16.3807 27.5 17.5 28.6193 17.5 30ZM25 22.5C25 23.8807 23.8807 25 22.5 25C21.1193 25 20 23.8807 20 22.5C20 21.1193 21.1193 20 22.5 20C23.8807 20 25 21.1193 25 22.5Z" fill="white"/>
</svg>
